# xmcd
#
# Track frame offsets:
#	150
#	17941
#	44741
#	64225
#	103305
#	123587
#	146301
#	162081
#	179186
#	196351
#	211214
#	226914
#	245365
#	274947
#	290714
#	315964
#	339042
#
# Disc length: 4787 seconds
#
# Revision: 0
# Processed by: cddbd v1.5.2PL0 Copyright (c) Steve Scherf et al.
# Submitted via: EasyCDDAExtractor 8.2.3.1
#
DISCID=0412b111
DTITLE=Various Artist - Blues Now Here! Box3 CD1
DYEAR=2007
DGENRE=Blues
TTITLE0=ALBERT CUMMINGS - Workin' Man Blues
TTITLE1=STORM WARNING - Whisky Blues
TTITLE2=COLIN JAMES - Travellin'
TTITLE3=WALTER TROUT and JOHN MAYALL - She Takes More Than She Gives
TTITLE4=JIMMY THACKERY - Out Of Mississippi
TTITLE5=RUDY ROTTA - I'm In The Groove
TTITLE6=JOHN MELLENCAMP - Down In The Bottom
TTITLE7=SNOWY WHITE - The Way It Is
TTITLE8=HENRY COOPER - Sun Goes Down at Midnight
TTITLE9=SHANE HENRY - In Too Deep
TTITLE10=JIMMY D'LANE - Til I Loved You
TTITLE11=MICHAEL POWERS - White Lightning
TTITLE12=AMAR SUNDY - This morning
TTITLE13=INNES SIBUN - Natural high
TTITLE14=AL BASILE - Your Turn To Pay
TTITLE15=TOM PRINCIPATO - Louisiana (Been Callin' Me)
TTITLE16=PHIL BROWN - The La-Lah-Land
EXTD=
EXTT0=
EXTT1=
EXTT2=
EXTT3=
EXTT4=
EXTT5=
EXTT6=
EXTT7=
EXTT8=
EXTT9=
EXTT10=
EXTT11=
EXTT12=
EXTT13=
EXTT14=
EXTT15=
EXTT16=
PLAYORDER=
